<svg width="25" height="31" viewBox="0 0 25 31" fill="none" xmlns="http://www.w3.org/2000/svg">
<path d="M11.6271 26.0206C10.8556 25.2529 3.69154 16.6141 3.61146 16.5196C3.29505 16.1273 3.09583 15.7204 3.04115 15.3474C2.98451 14.9599 3.08021 14.6209 3.33412 14.306C3.57044 14.013 3.85951 13.858 4.17005 13.858C4.54896 13.858 4.93763 14.0808 5.26185 14.4852L8.5099 18.3554C8.56654 18.4232 8.64076 18.4571 8.71302 18.4571C8.77054 18.4573 8.82682 18.4363 8.87478 18.397C8.92274 18.3576 8.96024 18.3015 8.98257 18.2358C9.0049 18.17 9.01107 18.0976 9.00029 18.0275C8.98952 17.9574 8.96228 17.8929 8.92201 17.842L3.73646 11.2012C3.21693 10.557 2.97279 9.57126 3.58998 8.80595C3.8263 8.5129 4.11537 8.3579 4.42591 8.3579C4.80482 8.3579 5.19349 8.58071 5.51771 8.98517L10.8224 15.3983C10.879 15.4661 10.9533 15.5024 11.0275 15.5024C11.1017 15.5024 11.1779 15.4661 11.2345 15.3959C11.3478 15.2554 11.3497 15.0277 11.2365 14.8849L4.86537 6.7861C4.57044 6.4204 4.39271 5.98204 4.36146 5.55579C4.33216 5.12228 4.45521 4.72024 4.71888 4.39329C4.95521 4.10024 5.24427 3.94524 5.55482 3.94524C5.93373 3.94524 6.3224 4.16806 6.64662 4.57009L13.1447 12.4267C13.2013 12.4945 13.2755 12.5308 13.3497 12.5308C13.424 12.5308 13.5001 12.4945 13.5568 12.4242C13.6701 12.2838 13.672 12.0561 13.5587 11.9132L8.83997 5.8997C8.5431 5.53157 8.36537 5.09563 8.33607 4.66938C8.30677 4.23587 8.42982 3.83384 8.69349 3.50688C8.92982 3.21384 9.21888 3.05884 9.52943 3.05884C9.90833 3.05884 10.297 3.28165 10.6212 3.6861C12.3517 5.79313 16.8693 11.3029 17.0216 11.5063C17.6017 12.0028 17.7189 11.252 17.7482 10.7652C17.7814 10.1985 17.2579 8.21985 17.5626 6.43978C18.0743 4.0736 19.549 4.4611 19.5822 4.48048C20.3908 4.95032 20.2365 5.65267 19.9493 7.06462L19.9201 7.34313C19.6193 9.1886 21.6857 14.6572 21.838 15.0665C22.6486 17.2656 23.5822 21.7242 20.4904 25.5581C17.1017 29.76 12.9064 27.607 11.6271 26.0206Z" fill="url(#paint0_radial_560_1590)"/>
<path d="M15.9737 28.3795C13.8956 28.3795 12.128 27.1468 11.4307 26.2919C10.8038 25.6574 6.84676 20.9202 3.6241 17.0427C3.49324 16.8853 3.41707 16.7957 3.40926 16.7836C3.04402 16.3307 2.81746 15.8584 2.75301 15.4128C2.67879 14.9066 2.80574 14.4489 3.12605 14.0493C3.41902 13.686 3.7784 13.4947 4.16902 13.4947C4.62801 13.4947 5.08894 13.7563 5.46785 14.2285L8.71199 18.0938L3.52449 11.4531C2.92684 10.712 2.62605 9.48407 3.38191 8.54923C3.67488 8.18595 4.03426 7.99462 4.42488 7.99462C4.88387 7.99462 5.3448 8.25618 5.72371 8.72845L11.0245 15.1367L4.65535 7.0404C4.31551 6.61899 4.10652 6.10313 4.06941 5.5897C4.0323 5.04235 4.18465 4.54103 4.51082 4.13657C4.80379 3.77329 5.16316 3.58196 5.55379 3.58196C6.01082 3.58196 6.47176 3.8411 6.85262 4.31337L13.3487 12.1675L8.62996 6.15399C8.28816 5.73017 8.07918 5.21431 8.04402 4.70087C8.00691 4.15595 8.15926 3.65462 8.48543 3.25017C8.7784 2.88688 9.13777 2.69556 9.5284 2.69556C9.98738 2.69556 10.4483 2.95712 10.8272 3.42938L12.2354 5.14165C14.7452 8.19321 16.8428 10.7483 17.0675 11.0341C17.1768 11.1431 17.3194 11.1842 17.38 11.1479C17.419 11.1237 17.462 11.0123 17.4542 10.7774C17.4425 10.3656 17.3956 9.85462 17.3468 9.31454C17.2491 8.22954 17.1475 7.10579 17.2745 6.3647C17.5518 5.07868 18.0968 4.53376 18.503 4.29884C19.0616 3.97915 19.6026 4.09056 19.7061 4.1511C20.7218 4.74204 20.5206 5.73017 20.2432 7.10095L20.2374 7.13485L20.2061 7.41821C20.003 8.65821 21.046 12.0852 22.0889 14.8776L22.1046 14.9163C22.8018 16.8054 24.0577 21.6516 20.6983 25.8172C19.1534 27.7281 17.4815 28.3795 15.9737 28.3795ZM4.16902 14.2213C3.93855 14.2213 3.7198 14.3399 3.54012 14.5627C3.35457 14.7928 3.29012 15.0156 3.32918 15.282C3.37215 15.5751 3.54598 15.9238 3.81746 16.2629C3.81941 16.2653 3.89754 16.3598 4.0323 16.5196C8.60652 22.0245 11.3682 25.2965 11.8096 25.7373L11.8331 25.7639C12.9112 27.1008 16.9171 29.4742 20.2823 25.3013C23.3819 21.4578 22.2159 16.9701 21.5694 15.2167L21.5557 15.1803C20.8839 13.3833 19.3565 9.02392 19.628 7.28501L19.6729 6.92173C19.9737 5.43954 19.9913 5.12954 19.4815 4.82438C19.3311 4.79048 18.253 4.62821 17.8409 6.53423C17.7374 7.14212 17.837 8.25376 17.9249 9.23462C17.9757 9.78923 18.0225 10.3148 18.0343 10.7531C18.0538 11.4434 17.7901 11.7074 17.63 11.8042C17.3038 12.0004 16.9151 11.8333 16.6729 11.5814L16.6475 11.5524C16.5284 11.3925 13.6944 7.94618 11.8194 5.66478L10.4093 3.94767C9.92879 3.34946 9.30965 3.25017 8.89363 3.76603C8.69051 4.0179 8.59871 4.31337 8.62019 4.64032C8.64363 4.98181 8.79207 5.33782 9.04012 5.6454L13.7686 11.6589C13.8761 11.7959 13.9359 11.9798 13.9352 12.1709C13.9344 12.3621 13.8732 12.5452 13.7647 12.6809C13.5479 12.9498 13.1651 12.9546 12.9425 12.6882L6.44051 4.82923C5.96004 4.23345 5.33894 4.13415 4.92488 4.65001C4.72176 4.90189 4.62996 5.19735 4.65144 5.52431C4.67684 5.86579 4.82527 6.22423 5.07137 6.52696L11.4444 14.6306C11.669 14.9115 11.6671 15.3716 11.4405 15.6526C11.2237 15.9214 10.8409 15.9263 10.6182 15.6599L5.3116 9.24431C4.83113 8.64368 4.21004 8.54681 3.79598 9.06267C3.29012 9.68993 3.55965 10.4674 3.94246 10.9445L9.13191 17.5901C9.23906 17.7265 9.29852 17.9098 9.29743 18.1002C9.29633 18.2906 9.23476 18.4728 9.12605 18.6073C8.9073 18.8785 8.5284 18.8809 8.30574 18.617L5.05769 14.7468C4.78426 14.4053 4.4698 14.2213 4.16902 14.2213Z" fill="#EDA600"/>
<path d="M16.5543 11.2714C15.482 13.9863 15.6207 17.7863 17.2301 20.8354C17.4117 21.2471 17.7223 21.0461 17.5641 20.6223C15.6207 15.4661 17.6578 11.751 17.6578 11.751L16.5543 11.2714Z" fill="#EDA600"/>
<path d="M12.3379 1.08987C12.9277 0.898545 13.5566 0.915498 14.168 1.0923C14.7754 1.27394 15.3828 1.65659 15.834 2.28144C16.2754 2.90144 16.5469 3.65464 16.6387 4.44417C16.7246 5.22644 16.6445 6.03292 16.3457 6.70136C16.3105 5.95058 16.2051 5.26034 16.0273 4.62339C15.9355 4.30612 15.8281 4.00339 15.6973 3.71761C15.5684 3.43425 15.416 3.15331 15.2539 2.92323C14.9238 2.45097 14.4766 2.08284 13.9746 1.79706C13.4707 1.50159 12.9219 1.28362 12.3379 1.08987Z" fill="#B0BEC5"/>
<path d="M12.5 3.38579C12.8262 3.12907 13.2344 3.07579 13.6191 3.16056C14.0078 3.24532 14.3789 3.48509 14.6719 3.81688C14.9629 4.15352 15.1699 4.57735 15.2988 5.01813C15.3613 5.23852 15.3926 5.47102 15.4219 5.69626C15.4316 5.92876 15.4316 6.16126 15.4023 6.39376C15.2676 6.21696 15.1621 6.04016 15.0625 5.86821C14.9473 5.70595 14.8574 5.53399 14.7539 5.37657C14.5508 5.06415 14.3535 4.78079 14.1406 4.52891C13.9219 4.28431 13.6914 4.06876 13.4238 3.88227C13.1582 3.69095 12.8594 3.5311 12.5 3.38579Z" fill="#90A4AE"/>
<path d="M1.33381 18.7308C1.6092 19.3993 1.89631 20.0193 2.2303 20.5666C2.56233 21.114 2.94319 21.579 3.38655 21.8817C3.60139 22.0294 3.85725 22.1578 4.10725 22.2547C4.3592 22.354 4.62092 22.4218 4.89045 22.4678C5.42951 22.5501 5.99592 22.5356 6.59553 22.4218C6.13069 22.9231 5.50959 23.1895 4.87678 23.2476C4.23615 23.3009 3.58576 23.129 3.00373 22.7221C2.4178 22.3079 1.98811 21.6492 1.71858 20.9493C1.44905 20.2445 1.30451 19.4865 1.33381 18.7308Z" fill="#B0BEC5"/>
<path d="M3.17877 18.4474C3.36823 18.8543 3.55573 19.1813 3.76081 19.4671C3.96393 19.7528 4.18268 19.9878 4.42096 20.2009C4.66315 20.4067 4.92877 20.5884 5.21784 20.77C5.36237 20.8621 5.51666 20.9347 5.66901 21.0413C5.82721 21.126 5.98737 21.2157 6.15534 21.344C5.9776 21.4264 5.79596 21.4748 5.61041 21.5111C5.42682 21.5208 5.23737 21.5329 5.04987 21.5014C4.67487 21.4385 4.29987 21.2762 3.97174 20.9928C3.64948 20.7046 3.3819 20.305 3.23541 19.8521C3.08698 19.4017 3.04401 18.8979 3.17877 18.4474Z" fill="#90A4AE"/>
<defs>
<radialGradient id="paint0_radial_560_1590" cx="0" cy="0" r="1" gradientUnits="userSpaceOnUse" gradientTransform="translate(8.60297 9.20328) rotate(-51.1155) scale(20.0219 19.5675)">
<stop offset="0.353" stop-color="#FFCA28"/>
<stop offset="0.872" stop-color="#FFB300"/>
</radialGradient>
</defs>
</svg>
