<svg width="20" height="20" viewBox="0 0 20 20" fill="none" xmlns="http://www.w3.org/2000/svg">
<path d="M16.3709 20C16.2084 20 16.052 19.9367 15.9352 19.8232L15.778 19.6704L14.3576 19.7115C13.8214 19.7238 13.3829 19.3062 13.368 18.767L13.3467 18.0057L12.6245 18.0265C12.6154 18.0268 12.606 18.0269 12.5966 18.0269C12.0718 18.0269 11.6494 17.6118 11.6349 17.0818L11.6138 16.3208L10.8915 16.3417C10.8819 16.342 10.8731 16.3421 10.8642 16.3421C10.3391 16.3421 9.91642 15.9269 9.90186 15.3969L9.85954 13.8766C9.72871 13.7437 9.49936 13.5266 9.25282 13.2997C9.00915 13.4398 8.73111 13.516 8.44669 13.516C8.02337 13.516 7.62181 13.3522 7.31613 13.0549C7.30363 13.0428 7.29163 13.0301 7.28019 13.0169C7.25 12.9821 7.21724 12.9435 7.18405 12.9027C6.93795 12.9311 6.69004 12.9455 6.44275 12.9455C4.72041 12.9455 3.1014 12.2719 1.88383 11.0487C-0.627944 8.52572 -0.627944 4.42044 1.88383 1.89735C3.10153 0.674096 4.72066 0.000488281 6.44306 0.000488281C8.16546 0.000488281 9.78453 0.674096 11.0022 1.89729C12.485 3.38678 13.1453 5.47917 12.7989 7.54613C12.9628 7.80117 13.055 8.09809 13.0635 8.40927C13.0709 8.67612 13.0169 8.9351 12.9078 9.16926L19.7696 16.0728C19.8817 16.1857 19.9466 16.337 19.951 16.4961L19.9994 18.23C20.0245 19.1477 19.3119 19.9154 18.4107 19.9417L16.3888 19.9998C16.3828 19.9999 16.3768 20 16.3709 20ZM16.0241 18.4128C16.1866 18.4128 16.343 18.4761 16.4598 18.5896L16.6171 18.7424L18.3746 18.6918C18.5876 18.6857 18.7561 18.4939 18.7498 18.2644L18.7083 16.7784L11.7442 9.77198C11.6502 9.67734 11.5889 9.55514 11.5692 9.42324L11.5453 9.26234C11.5176 9.07562 11.5756 8.88634 11.7034 8.74738C11.7777 8.66649 11.817 8.55854 11.8139 8.44358C11.8108 8.33182 11.7668 8.22817 11.6902 8.15172C11.5397 8.00183 11.4757 7.78573 11.5202 7.57801C11.8945 5.83229 11.3696 4.03844 10.1161 2.77924C9.13486 1.79352 7.8304 1.25069 6.443 1.25069C5.05559 1.25069 3.75125 1.79352 2.76991 2.77924C0.742275 4.81594 0.742275 8.12997 2.76991 10.1666C3.75113 11.1524 5.05546 11.6952 6.44281 11.6952C6.7748 11.6952 7.10804 11.6631 7.43347 11.6C7.70395 11.5473 7.9768 11.6782 8.10538 11.9218C8.14139 11.9901 8.12845 12.1777 8.43056 12.2297C8.53164 12.2472 8.64528 12.2234 8.71755 12.1465L8.7985 12.0547C8.90876 11.9297 9.06423 11.8539 9.23056 11.8441C9.39784 11.8345 9.5603 11.8913 9.68445 12.0025C9.69695 12.0137 9.995 12.2807 10.2987 12.5644C10.9642 13.1861 11.0954 13.3337 11.1035 13.6288L11.1439 15.0836L12.2033 15.0529C12.3706 15.0477 12.5302 15.1096 12.6507 15.2235C12.7713 15.3374 12.8416 15.4947 12.8462 15.6605L12.8769 16.7685L13.936 16.7378C14.1033 16.7325 14.2629 16.7944 14.3833 16.9084C14.504 17.0223 14.5743 17.1795 14.5789 17.3453L14.6099 18.4535L16.006 18.4131C16.0121 18.4129 16.0181 18.4128 16.0241 18.4128Z" fill="black"/>
<path d="M5.30711 7.52796C4.72183 7.52796 4.17174 7.29924 3.75817 6.8838C2.9061 6.02772 2.90616 4.63506 3.75817 3.7793C4.17174 3.36386 4.72195 3.13495 5.30729 3.13495C5.89264 3.13495 6.44285 3.3638 6.85642 3.77936C7.70836 4.63513 7.70824 6.02772 6.85623 6.88355C6.44272 7.29905 5.89257 7.52796 5.30711 7.52796ZM5.30729 4.38521C5.05694 4.38521 4.82147 4.48329 4.64419 4.66138C4.27632 5.03088 4.27632 5.63216 4.64425 6.00178C4.8214 6.17975 5.05688 6.27776 5.30711 6.27776C5.55746 6.27776 5.79287 6.17968 5.97015 6.00159C6.33808 5.63197 6.33815 5.03081 5.9704 4.66138C5.79318 4.48329 5.55765 4.38521 5.30729 4.38521Z" fill="black"/>
<path d="M16.9821 17.6846C16.8217 17.6846 16.6612 17.6233 16.5391 17.5005L10.9946 11.9309C10.751 11.6862 10.7519 11.2904 10.9966 11.0468C11.2411 10.8034 11.637 10.8041 11.8806 11.0488L17.4251 16.6185C17.6686 16.8631 17.6678 17.2589 17.4231 17.5025C17.3011 17.6239 17.1416 17.6846 16.9821 17.6846Z" fill="black"/>
</svg>
